<svg width="163" height="16" viewBox="0 0 163 16" fill="none" xmlns="http://www.w3.org/2000/svg">
<path d="M6.75 11.3203C6.75 10.8828 6.89844 10.5156 7.19531 10.2188C7.50781 9.90625 7.88281 9.75 8.32031 9.75H11.9062L11.2969 8.01562C11.0469 7.375 10.7969 6.77344 10.5469 6.21094C10.3125 5.63281 10.0391 5.10938 9.72656 4.64062C9.44531 4.17188 9.125 3.92188 8.76562 3.89062C8.39062 3.92188 8.05469 4.17188 7.75781 4.64062C7.46094 5.10938 7.1875 5.63281 6.9375 6.21094C6.70312 6.77344 6.46094 7.375 6.21094 8.01562L3.98438 14.1094C3.82812 14.4375 3.625 14.7109 3.375 14.9297C3.14062 15.1328 2.78125 15.2344 2.29688 15.2344C1.84375 15.2344 1.46875 15.0781 1.17188 14.7656C0.890625 14.4531 0.765625 14.0781 0.796875 13.6406C0.8125 13.4375 0.859375 13.25 0.9375 13.0781L3.51562 6.42188C4.23438 4.67188 4.95312 3.25781 5.67188 2.17969C6.375 1.11719 7.40625 0.578125 8.76562 0.5625C10.1094 0.578125 11.1328 1.11719 11.8359 2.17969C12.5547 3.22656 13.2734 4.64062 13.9922 6.42188L16.5703 13.0781C16.6484 13.25 16.6953 13.4375 16.7109 13.6406C16.7422 14.0781 16.6094 14.4531 16.3125 14.7656C16.0312 15.0781 15.6641 15.2344 15.2109 15.2344C14.6953 15.2344 14.3125 15.1328 14.0625 14.9297C13.8281 14.7109 13.6328 14.4375 13.4766 14.1094L13.0312 12.8906H8.32031C7.88281 12.8906 7.51562 12.7344 7.21875 12.4219C6.90625 12.125 6.75 11.7578 6.75 11.3203ZM32.1094 2.27344C32.2031 1.33594 32.7188 0.828125 33.6562 0.75C34.0938 0.75 34.4688 0.898438 34.7812 1.19531C35.1094 1.47656 35.2734 1.83594 35.2734 2.27344V13.4297C35.2578 13.8672 35.0938 14.2344 34.7812 14.5312C34.4688 14.8125 34.0938 14.9531 33.6562 14.9531H23.8125C22.4375 14.9062 21.3984 14.5859 20.6953 13.9922C19.9922 13.3828 19.4844 12.7031 19.1719 11.9531C18.8594 11.1875 18.7031 10.4141 18.7031 9.63281C18.7031 8.82031 18.8516 8.03906 19.1484 7.28906C19.4609 6.52344 19.9688 5.84375 20.6719 5.25C21.3906 4.64062 22.2969 4.32812 23.3906 4.3125H29.2969C29.7344 4.3125 30.1016 4.46875 30.3984 4.78125C30.7109 5.07812 30.8672 5.44531 30.8672 5.88281C30.8672 6.32031 30.7109 6.69531 30.3984 7.00781C30.1016 7.30469 29.7344 7.45312 29.2969 7.45312H23.2969C23 7.45312 22.7422 7.57812 22.5234 7.82812C22.3047 8.0625 22.1406 8.34375 22.0312 8.67188C21.9375 8.98438 21.8906 9.29688 21.8906 9.60938C21.8906 9.9375 21.9375 10.2656 22.0312 10.5938C22.1406 10.9062 22.3047 11.1875 22.5234 11.4375C22.7422 11.6719 23 11.7969 23.2969 11.8125H31.5C31.9062 11.7969 32.1094 11.5938 32.1094 11.2031V2.27344ZM43.1719 14.9531C41.7969 14.9062 40.7578 14.5859 40.0547 13.9922C39.3516 13.3828 38.8438 12.7031 38.5312 11.9531C38.2188 11.1875 38.0625 10.4141 38.0625 9.63281C38.0625 8.82031 38.2109 8.03906 38.5078 7.28906C38.8203 6.52344 39.3281 5.84375 40.0312 5.25C40.75 4.64062 41.6562 4.32812 42.75 4.3125H51.6562C52.0938 4.3125 52.4609 4.46094 52.7578 4.75781C53.0703 5.03906 53.2266 5.38281 53.2266 5.78906C53.2266 6.21094 53.0703 6.57031 52.7578 6.86719C52.4609 7.14844 52.0938 7.28906 51.6562 7.28906H42.8906C42.5469 7.28906 42.2422 7.40625 41.9766 7.64062C41.7266 7.875 41.5391 8.17969 41.4141 8.55469C41.3047 8.92969 41.25 9.29688 41.25 9.65625C41.25 10.0469 41.3047 10.4297 41.4141 10.8047C41.5391 11.1797 41.7266 11.4844 41.9766 11.7188C42.2422 11.9375 42.5469 12.0547 42.8906 12.0703H51.6562C52.0938 12.0703 52.4609 12.2109 52.7578 12.4922C53.0703 12.7734 53.2266 13.1094 53.2266 13.5C53.2266 13.9062 53.0703 14.25 52.7578 14.5312C52.4609 14.8125 52.0938 14.9531 51.6562 14.9531H43.1719ZM52.9453 9.58594C52.9453 9.88281 52.8125 10.1406 52.5469 10.3594C52.3125 10.5625 52.0156 10.6641 51.6562 10.6641H43.9922C43.6328 10.6641 43.3281 10.5625 43.0781 10.3594C42.8281 10.1406 42.7031 9.88281 42.7031 9.58594C42.7031 9.30469 42.8281 9.05469 43.0781 8.83594C43.3281 8.63281 43.6328 8.53125 43.9922 8.53125H51.6562C52.0156 8.53125 52.3203 8.64062 52.5703 8.85938C52.8203 9.0625 52.9453 9.30469 52.9453 9.58594ZM57.5391 0.75C57.9609 0.765625 58.3203 0.921875 58.6172 1.21875C58.9141 1.5 59.0703 1.85156 59.0859 2.27344V13.7578C58.9922 14.6953 58.4766 15.2031 57.5391 15.2812C57.1016 15.2812 56.7188 15.1406 56.3906 14.8594C56.0781 14.5625 55.9219 14.1953 55.9219 13.7578V2.27344C55.9375 1.83594 56.1016 1.47656 56.4141 1.19531C56.7266 0.898438 57.1016 0.75 57.5391 0.75ZM60.5156 7.28906C60.9688 6.55469 61.8359 6.01562 63.1172 5.67188L69.1406 4.05469C69.5625 3.92969 69.9609 3.96875 70.3359 4.17188C70.7266 4.35938 70.9844 4.66406 71.1094 5.08594C71.25 5.49219 71.2188 5.89062 71.0156 6.28125C70.8281 6.65625 70.5234 6.91406 70.1016 7.05469L63.6797 8.71875C63.2266 8.89062 63.0078 9.1875 63.0234 9.60938C63.0078 10.0312 63.2266 10.3281 63.6797 10.5L70.1016 12.1641C70.5234 12.3047 70.8281 12.5703 71.0156 12.9609C71.2188 13.3359 71.25 13.7266 71.1094 14.1328C70.9844 14.5547 70.7266 14.8594 70.3359 15.0469C69.9609 15.25 69.5625 15.2891 69.1406 15.1641L63.1172 13.5469C61.8203 13.1875 60.9453 12.6406 60.4922 11.9062C60.0547 11.1719 59.8359 10.4062 59.8359 9.60938C59.8359 8.8125 60.0625 8.03906 60.5156 7.28906ZM78.6094 15.4922C78.0781 15.4922 77.5469 15.3984 77.0156 15.2109C76.5 15.0234 76 14.75 75.5156 14.3906C75.0312 14.0156 74.6094 13.5234 74.25 12.9141C73.8906 12.3047 73.6953 11.5781 73.6641 10.7344V2.27344C73.6641 1.83594 73.8203 1.47656 74.1328 1.19531C74.4609 0.898438 74.8438 0.75 75.2812 0.75C76.2188 0.828125 76.7266 1.33594 76.8047 2.27344V10.5469C76.8203 10.9219 76.8984 11.2422 77.0391 11.5078C77.1797 11.7578 77.3359 11.9609 77.5078 12.1172C77.6797 12.2578 77.8516 12.3672 78.0234 12.4453C78.2109 12.5078 78.3984 12.5391 78.5859 12.5391C78.7734 12.5391 78.9609 12.5078 79.1484 12.4453C79.3359 12.3672 79.5156 12.2578 79.6875 12.1172C79.8594 11.9609 80.0156 11.7578 80.1562 11.5078C80.2969 11.2422 80.3672 10.9219 80.3672 10.5469V2.27344C80.3672 1.83594 80.5234 1.47656 80.8359 1.19531C81.1641 0.898438 81.5469 0.75 81.9844 0.75C82.9219 0.828125 83.4375 1.33594 83.5312 2.27344V10.5469C83.5469 10.9219 83.625 11.2344 83.7656 11.4844C83.9062 11.75 84.0625 11.9609 84.2344 12.1172C84.4062 12.2578 84.5781 12.3672 84.75 12.4453C84.9375 12.5078 85.125 12.5391 85.3125 12.5391C85.5 12.5391 85.6875 12.5078 85.875 12.4453C86.0625 12.3672 86.2422 12.2578 86.4141 12.1172C86.5859 11.9609 86.7422 11.7578 86.8828 11.5078C87.0234 11.2422 87.0938 10.9219 87.0938 10.5469V2.27344C87.0938 1.83594 87.25 1.47656 87.5625 1.19531C87.8906 0.898438 88.2734 0.75 88.7109 0.75C89.6484 0.828125 90.1641 1.33594 90.2578 2.27344V10.7344C90.2578 11.5781 90.0703 12.3047 89.6953 12.9141C89.3359 13.5234 88.9141 14.0156 88.4297 14.3906C87.9609 14.75 87.4609 15.0234 86.9297 15.2109C86.4141 15.3984 85.8828 15.4922 85.3359 15.4922C84.8047 15.4922 84.2734 15.3984 83.7422 15.2109C83.2266 15.0234 82.7266 14.7422 82.2422 14.3672C82.1484 14.3047 82.0625 14.2344 81.9844 14.1562C81.8906 14.2344 81.8047 14.3047 81.7266 14.3672C81.2422 14.7422 80.7344 15.0234 80.2031 15.2109C79.6875 15.3984 79.1562 15.4922 78.6094 15.4922ZM94.9453 0.75C95.3672 0.765625 95.7266 0.921875 96.0234 1.21875C96.3203 1.5 96.4766 1.85156 96.4922 2.27344V6.1875H104.109V2.27344C104.125 1.83594 104.289 1.47656 104.602 1.19531C104.914 0.898438 105.289 0.75 105.727 0.75C106.148 0.765625 106.508 0.921875 106.805 1.21875C107.102 1.5 107.258 1.85156 107.273 2.27344V13.7578C107.18 14.6953 106.664 15.2031 105.727 15.2812C105.289 15.2812 104.906 15.1406 104.578 14.8594C104.266 14.5625 104.109 14.1953 104.109 13.7578V9.32812H96.4922V13.7578C96.3984 14.6953 95.8828 15.2031 94.9453 15.2812C94.5078 15.2812 94.125 15.1406 93.7969 14.8594C93.4844 14.5625 93.3281 14.1953 93.3281 13.7578V2.27344C93.3438 1.83594 93.5078 1.47656 93.8203 1.19531C94.1328 0.898438 94.5078 0.75 94.9453 0.75ZM115.453 11.3203C115.453 10.8828 115.602 10.5156 115.898 10.2188C116.211 9.90625 116.586 9.75 117.023 9.75H120.609L120 8.01562C119.75 7.375 119.5 6.77344 119.25 6.21094C119.016 5.63281 118.742 5.10938 118.43 4.64062C118.148 4.17188 117.828 3.92188 117.469 3.89062C117.094 3.92188 116.758 4.17188 116.461 4.64062C116.164 5.10938 115.891 5.63281 115.641 6.21094C115.406 6.77344 115.164 7.375 114.914 8.01562L112.688 14.1094C112.531 14.4375 112.328 14.7109 112.078 14.9297C111.844 15.1328 111.484 15.2344 111 15.2344C110.547 15.2344 110.172 15.0781 109.875 14.7656C109.594 14.4531 109.469 14.0781 109.5 13.6406C109.516 13.4375 109.562 13.25 109.641 13.0781L112.219 6.42188C112.938 4.67188 113.656 3.25781 114.375 2.17969C115.078 1.11719 116.109 0.578125 117.469 0.5625C118.812 0.578125 119.836 1.11719 120.539 2.17969C121.258 3.22656 121.977 4.64062 122.695 6.42188L125.273 13.0781C125.352 13.25 125.398 13.4375 125.414 13.6406C125.445 14.0781 125.312 14.4531 125.016 14.7656C124.734 15.0781 124.367 15.2344 123.914 15.2344C123.398 15.2344 123.016 15.1328 122.766 14.9297C122.531 14.7109 122.336 14.4375 122.18 14.1094L121.734 12.8906H117.023C116.586 12.8906 116.219 12.7344 115.922 12.4219C115.609 12.125 115.453 11.7578 115.453 11.3203ZM127.312 2.69531C127.312 2.25781 127.461 1.89062 127.758 1.59375C128.07 1.28125 128.445 1.125 128.883 1.125H142.523C142.961 1.125 143.336 1.27344 143.648 1.57031C143.945 1.88281 144.094 2.25781 144.094 2.69531C144.094 3.13281 143.938 3.50781 143.625 3.82031C143.328 4.11719 142.961 4.26562 142.523 4.26562H137.297V13.7578C137.203 14.6953 136.688 15.2031 135.75 15.2812C135.312 15.2812 134.93 15.1406 134.602 14.8594C134.289 14.5625 134.133 14.1953 134.133 13.7578V4.26562H128.883C128.445 4.26562 128.078 4.10938 127.781 3.79688C127.469 3.5 127.312 3.13281 127.312 2.69531ZM146.109 2.69531C146.109 2.25781 146.258 1.89062 146.555 1.59375C146.867 1.28125 147.242 1.125 147.68 1.125H161.32C161.758 1.125 162.133 1.27344 162.445 1.57031C162.742 1.88281 162.891 2.25781 162.891 2.69531C162.891 3.13281 162.734 3.50781 162.422 3.82031C162.125 4.11719 161.758 4.26562 161.32 4.26562H156.094V13.7578C156 14.6953 155.484 15.2031 154.547 15.2812C154.109 15.2812 153.727 15.1406 153.398 14.8594C153.086 14.5625 152.93 14.1953 152.93 13.7578V4.26562H147.68C147.242 4.26562 146.875 4.10938 146.578 3.79688C146.266 3.5 146.109 3.13281 146.109 2.69531Z" fill="white"/>
</svg>
