<svg width="136" height="14" viewBox="0 0 136 14" fill="none" xmlns="http://www.w3.org/2000/svg">
<path d="M5.625 9.93359C5.625 9.56901 5.7487 9.26302 5.99609 9.01562C6.25651 8.75521 6.56901 8.625 6.93359 8.625H9.92188L9.41406 7.17969C9.20573 6.64583 8.9974 6.14453 8.78906 5.67578C8.59375 5.19401 8.36589 4.75781 8.10547 4.36719C7.87109 3.97656 7.60417 3.76823 7.30469 3.74219C6.99219 3.76823 6.71224 3.97656 6.46484 4.36719C6.21745 4.75781 5.98958 5.19401 5.78125 5.67578C5.58594 6.14453 5.38411 6.64583 5.17578 7.17969L3.32031 12.2578C3.1901 12.5312 3.02083 12.7591 2.8125 12.9414C2.61719 13.1107 2.31771 13.1953 1.91406 13.1953C1.53646 13.1953 1.22396 13.0651 0.976562 12.8047C0.742188 12.5443 0.638021 12.2318 0.664062 11.8672C0.677083 11.6979 0.716146 11.5417 0.78125 11.3984L2.92969 5.85156C3.52865 4.39323 4.1276 3.21484 4.72656 2.31641C5.3125 1.43099 6.17188 0.981771 7.30469 0.96875C8.42448 0.981771 9.27734 1.43099 9.86328 2.31641C10.4622 3.1888 11.0612 4.36719 11.6602 5.85156L13.8086 11.3984C13.8737 11.5417 13.9128 11.6979 13.9258 11.8672C13.9518 12.2318 13.8411 12.5443 13.5938 12.8047C13.3594 13.0651 13.0534 13.1953 12.6758 13.1953C12.2461 13.1953 11.9271 13.1107 11.7188 12.9414C11.5234 12.7591 11.3607 12.5312 11.2305 12.2578L10.8594 11.2422H6.93359C6.56901 11.2422 6.26302 11.112 6.01562 10.8516C5.75521 10.6042 5.625 10.2982 5.625 9.93359ZM26.7578 2.39453C26.8359 1.61328 27.2656 1.1901 28.0469 1.125C28.4115 1.125 28.724 1.2487 28.9844 1.49609C29.2578 1.73047 29.3945 2.02995 29.3945 2.39453V11.6914C29.3815 12.056 29.2448 12.362 28.9844 12.6094C28.724 12.8438 28.4115 12.9609 28.0469 12.9609H19.8438C18.6979 12.9219 17.832 12.6549 17.2461 12.1602C16.6602 11.6523 16.237 11.0859 15.9766 10.4609C15.7161 9.82292 15.5859 9.17839 15.5859 8.52734C15.5859 7.85026 15.7096 7.19922 15.957 6.57422C16.2174 5.9362 16.6406 5.36979 17.2266 4.875C17.8255 4.36719 18.5807 4.10677 19.4922 4.09375H24.4141C24.7786 4.09375 25.0846 4.22396 25.332 4.48438C25.5924 4.73177 25.7227 5.03776 25.7227 5.40234C25.7227 5.76693 25.5924 6.07943 25.332 6.33984C25.0846 6.58724 24.7786 6.71094 24.4141 6.71094H19.4141C19.1667 6.71094 18.9518 6.8151 18.7695 7.02344C18.5872 7.21875 18.4505 7.45312 18.3594 7.72656C18.2812 7.98698 18.2422 8.2474 18.2422 8.50781C18.2422 8.78125 18.2812 9.05469 18.3594 9.32812C18.4505 9.58854 18.5872 9.82292 18.7695 10.0312C18.9518 10.2266 19.1667 10.3307 19.4141 10.3438H26.25C26.5885 10.3307 26.7578 10.1615 26.7578 9.83594V2.39453ZM35.9766 12.9609C34.8307 12.9219 33.9648 12.6549 33.3789 12.1602C32.793 11.6523 32.3698 11.0859 32.1094 10.4609C31.849 9.82292 31.7188 9.17839 31.7188 8.52734C31.7188 7.85026 31.8424 7.19922 32.0898 6.57422C32.3503 5.9362 32.7734 5.36979 33.3594 4.875C33.9583 4.36719 34.7135 4.10677 35.625 4.09375H43.0469C43.4115 4.09375 43.7174 4.21745 43.9648 4.46484C44.2253 4.69922 44.3555 4.98568 44.3555 5.32422C44.3555 5.67578 44.2253 5.97526 43.9648 6.22266C43.7174 6.45703 43.4115 6.57422 43.0469 6.57422H35.7422C35.4557 6.57422 35.2018 6.67188 34.9805 6.86719C34.7721 7.0625 34.6159 7.31641 34.5117 7.62891C34.4206 7.94141 34.375 8.2474 34.375 8.54688C34.375 8.8724 34.4206 9.19141 34.5117 9.50391C34.6159 9.81641 34.7721 10.0703 34.9805 10.2656C35.2018 10.4479 35.4557 10.5456 35.7422 10.5586H43.0469C43.4115 10.5586 43.7174 10.6758 43.9648 10.9102C44.2253 11.1445 44.3555 11.4245 44.3555 11.75C44.3555 12.0885 44.2253 12.375 43.9648 12.6094C43.7174 12.8438 43.4115 12.9609 43.0469 12.9609H35.9766ZM44.1211 8.48828C44.1211 8.73568 44.0104 8.95052 43.7891 9.13281C43.5938 9.30208 43.3464 9.38672 43.0469 9.38672H36.6602C36.3607 9.38672 36.1068 9.30208 35.8984 9.13281C35.6901 8.95052 35.5859 8.73568 35.5859 8.48828C35.5859 8.25391 35.6901 8.04557 35.8984 7.86328C36.1068 7.69401 36.3607 7.60938 36.6602 7.60938H43.0469C43.3464 7.60938 43.6003 7.70052 43.8086 7.88281C44.0169 8.05208 44.1211 8.25391 44.1211 8.48828ZM47.9492 1.125C48.3008 1.13802 48.6003 1.26823 48.8477 1.51562C49.0951 1.75 49.2253 2.04297 49.2383 2.39453V11.9648C49.1602 12.7461 48.7305 13.1693 47.9492 13.2344C47.5846 13.2344 47.2656 13.1172 46.9922 12.8828C46.7318 12.6354 46.6016 12.3294 46.6016 11.9648V2.39453C46.6146 2.02995 46.7513 1.73047 47.0117 1.49609C47.2721 1.2487 47.5846 1.125 47.9492 1.125ZM50.4297 6.57422C50.8073 5.96224 51.5299 5.51302 52.5977 5.22656L57.6172 3.87891C57.9688 3.77474 58.3008 3.80729 58.6133 3.97656C58.9388 4.13281 59.1536 4.38672 59.2578 4.73828C59.375 5.07682 59.349 5.40885 59.1797 5.73438C59.0234 6.04688 58.7695 6.26172 58.418 6.37891L53.0664 7.76562C52.6888 7.90885 52.5065 8.15625 52.5195 8.50781C52.5065 8.85938 52.6888 9.10677 53.0664 9.25L58.418 10.6367C58.7695 10.7539 59.0234 10.9753 59.1797 11.3008C59.349 11.6133 59.375 11.9388 59.2578 12.2773C59.1536 12.6289 58.9388 12.8828 58.6133 13.0391C58.3008 13.2083 57.9688 13.2409 57.6172 13.1367L52.5977 11.7891C51.5169 11.4896 50.7878 11.0339 50.4102 10.4219C50.0456 9.8099 49.8633 9.17188 49.8633 8.50781C49.8633 7.84375 50.0521 7.19922 50.4297 6.57422ZM65.5078 13.4102C65.0651 13.4102 64.6224 13.332 64.1797 13.1758C63.75 13.0195 63.3333 12.7917 62.9297 12.4922C62.526 12.1797 62.1745 11.7695 61.875 11.2617C61.5755 10.7539 61.4128 10.1484 61.3867 9.44531V2.39453C61.3867 2.02995 61.5169 1.73047 61.7773 1.49609C62.0508 1.2487 62.3698 1.125 62.7344 1.125C63.5156 1.1901 63.9388 1.61328 64.0039 2.39453V9.28906C64.0169 9.60156 64.082 9.86849 64.1992 10.0898C64.3164 10.2982 64.4466 10.4674 64.5898 10.5977C64.7331 10.7148 64.8763 10.806 65.0195 10.8711C65.1758 10.9232 65.332 10.9492 65.4883 10.9492C65.6445 10.9492 65.8008 10.9232 65.957 10.8711C66.1133 10.806 66.263 10.7148 66.4062 10.5977C66.5495 10.4674 66.6797 10.2982 66.7969 10.0898C66.9141 9.86849 66.9727 9.60156 66.9727 9.28906V2.39453C66.9727 2.02995 67.1029 1.73047 67.3633 1.49609C67.6367 1.2487 67.9557 1.125 68.3203 1.125C69.1016 1.1901 69.5312 1.61328 69.6094 2.39453V9.28906C69.6224 9.60156 69.6875 9.86198 69.8047 10.0703C69.9219 10.2917 70.0521 10.4674 70.1953 10.5977C70.3385 10.7148 70.4818 10.806 70.625 10.8711C70.7812 10.9232 70.9375 10.9492 71.0938 10.9492C71.25 10.9492 71.4062 10.9232 71.5625 10.8711C71.7188 10.806 71.8685 10.7148 72.0117 10.5977C72.1549 10.4674 72.2852 10.2982 72.4023 10.0898C72.5195 9.86849 72.5781 9.60156 72.5781 9.28906V2.39453C72.5781 2.02995 72.7083 1.73047 72.9688 1.49609C73.2422 1.2487 73.5612 1.125 73.9258 1.125C74.707 1.1901 75.1367 1.61328 75.2148 2.39453V9.44531C75.2148 10.1484 75.0586 10.7539 74.7461 11.2617C74.4466 11.7695 74.0951 12.1797 73.6914 12.4922C73.3008 12.7917 72.8841 13.0195 72.4414 13.1758C72.0117 13.332 71.569 13.4102 71.1133 13.4102C70.6706 13.4102 70.2279 13.332 69.7852 13.1758C69.3555 13.0195 68.9388 12.7852 68.5352 12.4727C68.457 12.4206 68.3854 12.362 68.3203 12.2969C68.2422 12.362 68.1706 12.4206 68.1055 12.4727C67.7018 12.7852 67.2786 13.0195 66.8359 13.1758C66.4062 13.332 65.9635 13.4102 65.5078 13.4102ZM79.1211 1.125C79.4727 1.13802 79.7721 1.26823 80.0195 1.51562C80.2669 1.75 80.3971 2.04297 80.4102 2.39453V5.65625H86.7578V2.39453C86.7708 2.02995 86.9076 1.73047 87.168 1.49609C87.4284 1.2487 87.7409 1.125 88.1055 1.125C88.457 1.13802 88.7565 1.26823 89.0039 1.51562C89.2513 1.75 89.3815 2.04297 89.3945 2.39453V11.9648C89.3164 12.7461 88.8867 13.1693 88.1055 13.2344C87.7409 13.2344 87.4219 13.1172 87.1484 12.8828C86.888 12.6354 86.7578 12.3294 86.7578 11.9648V8.27344H80.4102V11.9648C80.332 12.7461 79.9023 13.1693 79.1211 13.2344C78.7565 13.2344 78.4375 13.1172 78.1641 12.8828C77.9036 12.6354 77.7734 12.3294 77.7734 11.9648V2.39453C77.7865 2.02995 77.9232 1.73047 78.1836 1.49609C78.444 1.2487 78.7565 1.125 79.1211 1.125ZM96.2109 9.93359C96.2109 9.56901 96.3346 9.26302 96.582 9.01562C96.8424 8.75521 97.1549 8.625 97.5195 8.625H100.508L100 7.17969C99.7917 6.64583 99.5833 6.14453 99.375 5.67578C99.1797 5.19401 98.9518 4.75781 98.6914 4.36719C98.457 3.97656 98.1901 3.76823 97.8906 3.74219C97.5781 3.76823 97.2982 3.97656 97.0508 4.36719C96.8034 4.75781 96.5755 5.19401 96.3672 5.67578C96.1719 6.14453 95.9701 6.64583 95.7617 7.17969L93.9062 12.2578C93.776 12.5312 93.6068 12.7591 93.3984 12.9414C93.2031 13.1107 92.9036 13.1953 92.5 13.1953C92.1224 13.1953 91.8099 13.0651 91.5625 12.8047C91.3281 12.5443 91.224 12.2318 91.25 11.8672C91.263 11.6979 91.3021 11.5417 91.3672 11.3984L93.5156 5.85156C94.1146 4.39323 94.7135 3.21484 95.3125 2.31641C95.8984 1.43099 96.7578 0.981771 97.8906 0.96875C99.0104 0.981771 99.8633 1.43099 100.449 2.31641C101.048 3.1888 101.647 4.36719 102.246 5.85156L104.395 11.3984C104.46 11.5417 104.499 11.6979 104.512 11.8672C104.538 12.2318 104.427 12.5443 104.18 12.8047C103.945 13.0651 103.639 13.1953 103.262 13.1953C102.832 13.1953 102.513 13.1107 102.305 12.9414C102.109 12.7591 101.947 12.5312 101.816 12.2578L101.445 11.2422H97.5195C97.1549 11.2422 96.849 11.112 96.6016 10.8516C96.3411 10.6042 96.2109 10.2982 96.2109 9.93359ZM106.094 2.74609C106.094 2.38151 106.217 2.07552 106.465 1.82812C106.725 1.56771 107.038 1.4375 107.402 1.4375H118.77C119.134 1.4375 119.447 1.5612 119.707 1.80859C119.954 2.06901 120.078 2.38151 120.078 2.74609C120.078 3.11068 119.948 3.42318 119.688 3.68359C119.44 3.93099 119.134 4.05469 118.77 4.05469H114.414V11.9648C114.336 12.7461 113.906 13.1693 113.125 13.2344C112.76 13.2344 112.441 13.1172 112.168 12.8828C111.908 12.6354 111.777 12.3294 111.777 11.9648V4.05469H107.402C107.038 4.05469 106.732 3.92448 106.484 3.66406C106.224 3.41667 106.094 3.11068 106.094 2.74609ZM121.758 2.74609C121.758 2.38151 121.882 2.07552 122.129 1.82812C122.389 1.56771 122.702 1.4375 123.066 1.4375H134.434C134.798 1.4375 135.111 1.5612 135.371 1.80859C135.618 2.06901 135.742 2.38151 135.742 2.74609C135.742 3.11068 135.612 3.42318 135.352 3.68359C135.104 3.93099 134.798 4.05469 134.434 4.05469H130.078V11.9648C130 12.7461 129.57 13.1693 128.789 13.2344C128.424 13.2344 128.105 13.1172 127.832 12.8828C127.572 12.6354 127.441 12.3294 127.441 11.9648V4.05469H123.066C122.702 4.05469 122.396 3.92448 122.148 3.66406C121.888 3.41667 121.758 3.11068 121.758 2.74609Z" fill="white"/>
</svg>
