<svg width="143" height="48" viewBox="0 0 143 48" fill="none" xmlns="http://www.w3.org/2000/svg">
<path d="M0.8125 7.39062H7.82031V25.7422C7.82031 26.8203 7.96094 27.8672 8.24219 28.8828C8.72656 30.5703 9.57031 31.9375 10.7734 32.9844C11.9766 34.0156 13.5 34.5312 15.3438 34.5312C17.2188 34.5312 18.7578 34.0156 19.9609 32.9844C21.1641 31.9375 22 30.5703 22.4688 28.8828C22.75 27.8828 22.8906 26.8359 22.8906 25.7422V7.39062H29.8984V25.625C29.8984 27.0156 29.7344 28.4453 29.4062 29.9141C28.6094 33.2422 26.9609 35.9297 24.4609 37.9766C21.9766 40.0078 18.9453 41.0234 15.3672 41.0234C11.7891 41.0234 8.75 40.0078 6.25 37.9766C3.75 35.9297 2.10156 33.2422 1.30469 29.9141C0.976562 28.5547 0.8125 27.125 0.8125 25.625V7.39062ZM32.6641 41L45.5078 23.2578L34.0234 7.41406H42.625L49.5625 17.5625L56.5 7.41406H65.1016L53.6172 23.2578L66.4844 41H57.8125L49.5625 28.9062L41.3125 41H32.6641ZM89.1953 0.96875H96.5781L75.1797 47.7266H67.7969L89.1953 0.96875ZM100.328 7.39062H107.336V25.7422C107.336 26.8203 107.477 27.8672 107.758 28.8828C108.242 30.5703 109.086 31.9375 110.289 32.9844C111.492 34.0156 113.016 34.5312 114.859 34.5312C116.734 34.5312 118.273 34.0156 119.477 32.9844C120.68 31.9375 121.516 30.5703 121.984 28.8828C122.266 27.8828 122.406 26.8359 122.406 25.7422V7.39062H129.414V25.625C129.414 27.0156 129.25 28.4453 128.922 29.9141C128.125 33.2422 126.477 35.9297 123.977 37.9766C121.492 40.0078 118.461 41.0234 114.883 41.0234C111.305 41.0234 108.266 40.0078 105.766 37.9766C103.266 35.9297 101.617 33.2422 100.82 29.9141C100.492 28.5547 100.328 27.125 100.328 25.625V7.39062ZM135.414 41V7.39062H142.445V41H135.414Z" fill="#00C4F0"/>
</svg>
