<svg width="24" height="24" viewBox="0 0 24 24" fill="none" xmlns="http://www.w3.org/2000/svg">
<path d="M19.0757 4.86368C17.1883 2.97319 14.6774 1.9299 12.0032 1.92676C6.48945 1.92676 2.00171 6.41606 2.00171 11.9314C1.99857 13.6901 2.46296 15.4135 3.33603 16.929L1.91699 22.1118L7.21819 20.7194C8.67645 21.518 10.3238 21.9361 11.9985 21.9361H12.0032C17.5154 21.9361 21.9985 17.4515 22 11.9377C22.004 9.26669 20.9622 6.75259 19.0757 4.86368ZM12.004 20.2503H11.9993C10.5073 20.2487 9.04199 19.8455 7.76651 19.0894L7.4645 18.9074L4.31893 19.7349L5.1567 16.6694L4.95902 16.3556C4.12674 15.0331 3.68903 13.5011 3.69216 11.9322C3.69216 7.34641 7.41979 3.62349 12.0056 3.62349C14.2287 3.62349 16.3121 4.4895 17.8778 6.0568C19.4514 7.6288 20.3151 9.71853 20.3135 11.9385C20.3135 16.5211 16.5851 20.2503 12.004 20.2503Z" fill="white"/>
<path d="M16.5591 14.0228C16.3065 13.8973 15.0804 13.298 14.8506 13.2094C14.6223 13.127 14.4568 13.0854 14.2913 13.338C14.1226 13.5859 13.6433 14.1483 13.4959 14.3154C13.3531 14.4825 13.2033 14.5021 12.9554 14.3782C12.7075 14.2527 11.9035 13.9907 10.9473 13.1356C10.2044 12.4704 9.70471 11.6538 9.55802 11.4075C9.41211 11.1581 9.54155 11.0216 9.66863 10.8961C9.7808 10.7839 9.91651 10.6035 10.0428 10.4607C10.1683 10.3125 10.2099 10.2097 10.2954 10.0411C10.377 9.87711 10.3354 9.73042 10.2742 9.6057C10.2099 9.48176 9.71177 8.24941 9.50076 7.75051C9.30151 7.26495 9.09599 7.3277 8.94146 7.31986C8.79399 7.31201 8.62612 7.31201 8.46374 7.31201C8.29509 7.31201 8.02367 7.3732 7.7954 7.62579C7.564 7.87524 6.91919 8.47925 6.91919 9.71081C6.91919 10.9408 7.81736 12.1269 7.94287 12.2939C8.06681 12.4595 9.70471 14.983 12.2094 16.0647C12.8071 16.3283 13.27 16.4781 13.6355 16.5934C14.2332 16.7848 14.7753 16.7542 15.2075 16.6915C15.6884 16.6177 16.6846 16.089 16.894 15.5023C17.1011 14.9187 17.1011 14.419 17.0384 14.3146C16.9764 14.2095 16.8109 14.1483 16.5591 14.0228Z" fill="white"/>
</svg>
