<svg width="223" height="223" viewBox="0 0 223 223" fill="none" xmlns="http://www.w3.org/2000/svg">
<g clip-path="url(#clip0_13_50)">
<path d="M223 185.833C223 206.275 206.275 223 185.833 223H37.1667C16.725 223 0 206.275 0 185.833V37.1667C0 16.725 16.725 0 37.1667 0H185.833C206.275 0 223 16.725 223 37.1667V185.833Z" fill="#563D7C"/>
<path d="M60.5963 48.4624H123.816C135.476 48.4624 144.841 51.1224 151.873 56.4787C158.906 61.8351 162.44 69.8879 162.44 80.7099C162.44 87.2688 160.837 92.8802 157.63 97.5443C154.424 102.208 149.833 105.852 143.857 108.403V108.767C151.873 110.48 157.958 114.269 162.076 120.136C166.193 126.039 168.27 133.399 168.27 142.29C168.27 147.391 167.359 152.165 165.537 156.574C163.716 161.019 160.873 164.845 156.975 168.052C153.076 171.258 148.12 173.809 142.035 175.704C135.95 177.598 128.735 178.546 120.354 178.546H60.5963V48.4624ZM83.3699 102.937H120.537C126.002 102.937 130.557 101.407 134.201 98.273C137.845 95.1394 139.667 90.6939 139.667 84.8639C139.667 78.305 138.027 73.6774 134.747 71.0175C131.468 68.3575 126.731 67.0093 120.537 67.0093H83.3699V102.937ZM83.3699 159.962H123.634C130.557 159.962 135.95 158.177 139.739 154.57C143.565 150.999 145.497 145.897 145.497 139.339C145.497 132.889 143.602 127.97 139.739 124.472C135.877 120.974 130.557 119.298 123.634 119.298H83.3699V159.962Z" fill="white"/>
</g>
<defs>
<clipPath id="clip0_13_50">
<rect width="223" height="223" fill="white"/>
</clipPath>
</defs>
</svg>
