<svg width="198" height="223" viewBox="0 0 198 223" fill="none" xmlns="http://www.w3.org/2000/svg">
<path fill-rule="evenodd" clip-rule="evenodd" d="M179.802 198.838L197.331 2.57435L197.56 0H194.977H2.58251H0L0.229365 2.57435L17.7385 198.87L17.8845 200.507L19.4617 200.943L98.0329 222.747H99.2936L178.079 200.911L179.656 200.475L179.802 198.838Z" fill="#1572B6"/>
<path fill-rule="evenodd" clip-rule="evenodd" d="M182.334 13.9214H98.78V208.442L166.641 189.635L182.334 13.9214Z" fill="#35A8DB"/>
<path fill-rule="evenodd" clip-rule="evenodd" d="M98.6872 66.18L39.7552 90.7137L41.7099 115.003L98.6872 90.6515L159.296 64.7495L161.809 39.9021L98.6872 66.18Z" fill="#E9E9E8"/>
<path fill-rule="evenodd" clip-rule="evenodd" d="M98.6872 39.9034H99.1239H99.6215H100.118H100.615H101.113H101.61H102.108H102.606H103.103H103.601H104.099H104.596H105.094H105.591H106.089H106.587H107.083H107.58H108.078H108.576H109.073H109.571H110.068H110.566H111.064H111.561H112.059H112.555H113.053H113.55H114.048H114.546H115.043H115.541H116.038H116.536H117.034H117.531H118.029H118.526H119.024H119.522H120.018H120.515H121.013H121.511H122.008H122.506H123.003H123.501H123.999H124.496H124.994H125.492H125.989H126.485H126.983H127.481H127.978H128.476H128.973H129.471H129.969H130.466H130.964H131.461H131.959H132.455H132.953H133.45H133.948H134.446H134.943H135.441H135.938H136.436H136.934H137.431H137.929H138.427H138.924H139.42H139.918H140.416H140.913H141.411H141.908H142.406H142.904H143.401H143.899H144.396H144.894H145.39H145.888H146.385H146.883H147.381H147.878H148.376H148.874H149.371H149.869H150.366H150.864H151.362H151.859H152.355H152.853H153.351H153.848H154.346H154.843H155.341H155.839H156.336H156.834H157.331H157.829H158.327H158.824H159.32H159.818H160.316H160.813H161.311H161.809L161.311 44.8215L160.813 49.7392L160.316 54.6569L159.818 59.5761L159.32 64.494L159.296 64.7496H158.824H158.327H157.829H157.331H156.834H156.336H155.839H155.341H154.843H154.346H153.848H153.351H152.853H152.355H151.859H151.362H150.864H150.366H149.869H149.371H148.874H148.376H147.878H147.381H146.883H146.385H145.888H145.39H144.894H144.396H143.899H143.401H142.904H142.406H141.908H141.411H140.913H140.416H139.918H139.42H138.924H138.427H137.929H137.431H136.934H136.436H135.938H135.441H134.943H134.446H133.948H133.45H132.953H132.455H131.959H131.461H130.964H130.466H129.969H129.471H128.973H128.476H127.978H127.481H126.983H126.485H125.989H125.492H124.994H124.496H123.999H123.501H123.003H122.506H122.008H121.511H121.013H120.515H120.018H119.522H119.024H118.526H118.029H117.531H117.034H116.536H116.038H115.541H115.043H114.546H114.048H113.55H113.053H112.555H112.059H111.561H111.064H110.566H110.068H109.571H109.073H108.576H108.078H107.58H107.083H106.587H106.089H105.591H105.094H104.596H104.099H103.601H103.103H102.606H102.123H102.108H101.61H101.113H100.615H100.118H99.6215H99.1239H98.7597H98.6872H98.6262H98.1286H97.631H97.1334H96.6358H96.1382H95.6406H95.1434H94.6459H94.1485H93.651H93.1534H92.6559H92.1586H91.661H91.1635H90.6659H90.1684H89.6708H89.1735H88.676H88.1784H87.6809H87.1833H86.686H86.1884H85.6909H85.1935H84.6958H84.1984H83.7009H83.2034H82.7058H82.2084H81.7109H81.2133H80.716H80.2183H79.7209H79.2234H78.7258H78.2285H77.731H77.2334H76.7358H76.2383H75.741H75.2434H74.7459H74.2484H73.7508H73.2535H72.7559H72.2584H71.7608H71.2634H70.7659H70.2684H69.771H69.2733H68.7759H68.2783H67.7808H67.2835H66.7858H66.2884H65.7908H65.2933H64.7957H64.2984H63.8009H63.3033H62.8058H62.3082H61.8109H61.3134H60.8158H60.3183H59.8209H59.3234H58.8258H58.3283H57.8309H57.3332H56.8358H56.3384H55.8408H55.3434H54.8458H54.3483H53.8507H53.3534H52.8559H52.3583H51.8608H51.3632H50.8659H50.3683H49.8708H49.3733H48.8757H48.3784H47.8808H47.3833H46.8858H46.3882H45.8908H45.3933H44.8958H44.3982H43.9007H43.4033H42.9057H42.4083H41.9109H41.4133H40.9156H40.4182H39.9209H39.4232H38.9258H38.4283H37.9307H37.5201L37.4334 64.0469L36.9358 60.0222L36.4383 55.9988L35.9407 51.9739L35.4432 47.9505L34.9459 43.927L34.4484 39.9034H34.9459H35.4432H35.9407H36.4383H36.9358H37.4334H37.9307H38.4283H38.9258H39.4232H39.9209H40.4182H40.9156H41.4133H41.9109H42.4083H42.9057H43.4033H43.9007H44.3982H44.8958H45.3933H45.8908H46.3882H46.8858H47.3833H47.8808H48.3784H48.8757H49.3733H49.8708H50.3683H50.8659H51.3632H51.8608H52.3583H52.8559H53.3534H53.8507H54.3483H54.8458H55.3434H55.8408H56.3384H56.8358H57.3332H57.8309H58.3283H58.8258H59.3234H59.8209H60.3183H60.8158H61.3134H61.8109H62.3082H62.8058H63.3033H63.8009H64.2984H64.7957H65.2933H65.7908H66.2884H66.7858H67.2835H67.7808H68.2783H68.7759H69.2733H69.771H70.2684H70.7659H71.2634H71.7608H72.2584H72.7559H73.2535H73.7508H74.2484H74.7459H75.2434H75.741H76.2383H76.7358H77.2334H77.731H78.2285H78.7258H79.2234H79.7209H80.2183H80.716H81.2133H81.7109H82.2084H82.7058H83.2034H83.7009H84.1984H84.6958H85.1935H85.6909H86.1884H86.686H87.1833H87.6809H88.1784H88.676H89.1735H89.6708H90.1684H90.6659H91.1635H91.661H92.1586H92.6559H93.1534H93.651H94.1485H94.6459H95.1434H95.6406H96.1382H96.6358H97.1334H97.631H98.1286H98.6262H98.6872Z" fill="#E9E9E8"/>
<path fill-rule="evenodd" clip-rule="evenodd" d="M39.8461 90.7172H157.154L155.017 115.283L41.8008 115.003L39.8461 90.7172Z" fill="#E9E9E8"/>
<path fill-rule="evenodd" clip-rule="evenodd" d="M43.5117 128.687L69.173 128.697L70.8473 148.783L98.6872 155.685L127.269 147.667L129.203 114.819L155.093 114.413L150.451 167.768L98.78 182.845L46.7374 167.489L43.5117 128.687Z" fill="#E9E9E8"/>
<path fill-rule="evenodd" clip-rule="evenodd" d="M98.78 90.6116L159.296 64.7496L161.809 39.9022L98.78 66.1411V90.6116Z" fill="#FFFFFE"/>
<path fill-rule="evenodd" clip-rule="evenodd" d="M98.78 39.9034H99.1239H99.6215H100.118H100.615H101.113H101.61H102.108H102.606H103.103H103.601H104.099H104.596H105.094H105.591H106.089H106.587H107.083H107.58H108.078H108.576H109.073H109.571H110.068H110.566H111.064H111.561H112.059H112.555H113.053H113.55H114.048H114.546H115.043H115.541H116.038H116.536H117.034H117.531H118.029H118.526H119.024H119.522H120.018H120.515H121.013H121.511H122.008H122.506H123.003H123.501H123.999H124.496H124.994H125.492H125.989H126.485H126.983H127.481H127.978H128.476H128.973H129.471H129.969H130.466H130.964H131.461H131.959H132.455H132.953H133.45H133.948H134.446H134.943H135.441H135.938H136.436H136.934H137.431H137.929H138.427H138.924H139.42H139.918H140.416H140.913H141.411H141.908H142.406H142.904H143.401H143.899H144.396H144.894H145.39H145.888H146.385H146.883H147.381H147.878H148.376H148.874H149.371H149.869H150.366H150.864H151.362H151.859H152.355H152.853H153.351H153.848H154.346H154.843H155.341H155.839H156.336H156.834H157.331H157.829H158.327H158.824H159.32H159.818H160.316H160.813H161.311H161.809L161.311 44.8215L160.813 49.7392L160.316 54.6569L159.818 59.5761L159.32 64.494L159.296 64.7496H158.824H158.327H157.829H157.331H156.834H156.336H155.839H155.341H154.843H154.346H153.848H153.351H152.853H152.355H151.859H151.362H150.864H150.366H149.869H149.371H148.874H148.376H147.878H147.381H146.883H146.385H145.888H145.39H144.894H144.396H143.899H143.401H142.904H142.406H141.908H141.411H140.913H140.416H139.918H139.42H138.924H138.427H137.929H137.431H136.934H136.436H135.938H135.441H134.943H134.446H133.948H133.45H132.953H132.455H131.959H131.461H130.964H130.466H129.969H129.471H128.973H128.476H127.978H127.481H126.983H126.485H125.989H125.492H124.994H124.496H123.999H123.501H123.003H122.506H122.008H121.511H121.013H120.515H120.018H119.522H119.024H118.526H118.029H117.531H117.034H116.536H116.038H115.541H115.043H114.546H114.048H113.55H113.053H112.555H112.059H111.561H111.064H110.566H110.068H109.571H109.073H108.576H108.078H107.58H107.083H106.587H106.089H105.591H105.094H104.596H104.099H103.601H103.103H102.606H102.123H102.108H101.61H101.113H100.615H100.118H99.6215H99.1239H98.78V39.9034Z" fill="#FFFFFE"/>
<path fill-rule="evenodd" clip-rule="evenodd" d="M98.78 90.7172H157.154L155.017 115.283L98.78 115.144V90.7172Z" fill="#FFFFFE"/>
<path fill-rule="evenodd" clip-rule="evenodd" d="M98.78 155.659L127.269 147.667L129.203 114.819L155.093 114.413L150.45 167.768L98.78 182.845V182.844V155.659Z" fill="#FFFFFE"/>
</svg>
