<svg width="223" height="222" viewBox="0 0 223 222" fill="none" xmlns="http://www.w3.org/2000/svg">
<g clip-path="url(#clip0_13_65)">
<path d="M188 0H35C15.67 0 0 15.67 0 35V187C0 206.33 15.67 222 35 222H188C207.33 222 223 206.33 223 187V35C223 15.67 207.33 0 188 0Z" fill="#1E1E1E"/>
<path d="M111.5 112.233C111.5 106.018 113.98 100.058 118.394 95.6636C122.809 91.2689 128.796 88.8 135.039 88.8C141.282 88.8 147.269 91.2689 151.683 95.6636C156.098 100.058 158.578 106.018 158.578 112.233C158.578 118.448 156.098 124.409 151.683 128.803C147.269 133.198 141.282 135.667 135.039 135.667C128.796 135.667 122.809 133.198 118.394 128.803C113.98 124.409 111.5 118.448 111.5 112.233Z" fill="#1ABCFE"/>
<path d="M64.4222 159.1C64.4222 152.885 66.9022 146.925 71.3166 142.53C75.731 138.136 81.7181 135.667 87.9611 135.667H111.5V159.1C111.5 165.315 109.02 171.275 104.606 175.67C100.191 180.065 94.2041 182.533 87.9611 182.533C81.7181 182.533 75.731 180.065 71.3166 175.67C66.9022 171.275 64.4222 165.315 64.4222 159.1Z" fill="#0ACF83"/>
<path d="M111.5 41.9333V88.8H135.039C141.282 88.8 147.269 86.3311 151.683 81.9365C156.098 77.5419 158.578 71.5817 158.578 65.3667C158.578 59.1517 156.098 53.1915 151.683 48.7968C147.269 44.4022 141.282 41.9333 135.039 41.9333H111.5Z" fill="#FF7262"/>
<path d="M64.4222 65.3667C64.4222 71.5817 66.9022 77.5419 71.3166 81.9365C75.731 86.3311 81.7181 88.8 87.9611 88.8H111.5V41.9333H87.9611C81.7181 41.9333 75.731 44.4022 71.3166 48.7968C66.9022 53.1915 64.4222 59.1517 64.4222 65.3667Z" fill="#F24E1E"/>
<path d="M64.4222 112.233C64.4222 118.448 66.9022 124.409 71.3166 128.803C75.731 133.198 81.7181 135.667 87.9611 135.667H111.5V88.8H87.9611C81.7181 88.8 75.731 91.2689 71.3166 95.6636C66.9022 100.058 64.4222 106.018 64.4222 112.233Z" fill="#A259FF"/>
</g>
<defs>
<clipPath id="clip0_13_65">
<rect width="223" height="222" fill="white"/>
</clipPath>
</defs>
</svg>
