<svg width="196" height="223" viewBox="0 0 196 223" fill="none" xmlns="http://www.w3.org/2000/svg">
<path d="M3.40055 0C1.35618 0 -0.166896 1.67033 0.0146915 3.71132L17.2485 197.521C17.4301 199.563 19.1895 201.682 21.16 202.23L94.2919 222.589C96.262 223.137 99.485 223.137 101.455 222.59L174.81 202.198C176.78 201.65 178.541 199.531 178.723 197.49L195.985 3.71132C196.168 1.67033 194.643 0 192.599 0H3.40055ZM159.283 44.4496C159.12 46.2702 158.839 49.431 158.657 51.4724L158.203 56.5574C158.02 58.598 157.76 61.5166 157.623 63.0423C157.486 64.5685 157.356 65.8172 157.332 65.8172C157.309 65.8172 155.617 65.8172 153.573 65.8172H101.717C99.6722 65.8172 97.9827 65.8172 97.9606 65.8172C97.9384 65.8172 96.2472 65.8172 94.2029 65.8172H66.8918C64.8474 65.8172 63.3243 67.4876 63.5059 69.5285L65.0989 87.3817C65.2805 89.4223 67.1025 91.0931 69.1464 91.0931H94.2033C96.2477 91.0931 97.9384 91.0931 97.961 91.0931C97.9836 91.0931 99.6731 91.0931 101.717 91.0931H144.786C146.831 91.0931 149.994 91.0931 151.816 91.0931C153.637 91.0931 154.992 92.5831 154.827 94.4037C154.661 96.2243 154.378 99.3859 154.197 101.426L149.075 158.984C148.892 161.026 148.661 163.633 148.561 164.78C148.46 165.925 146.765 167.311 144.795 167.859L101.582 179.872C99.6118 180.419 97.9754 180.872 97.9445 180.879C97.9141 180.886 96.2781 180.442 94.3071 179.895L51.0477 167.86C49.0776 167.312 47.3173 165.193 47.1362 163.152L44.3515 131.816C44.1699 129.775 45.6947 128.104 47.7391 128.104H51.6871C53.7315 128.104 57.0765 128.104 59.1205 128.104H65.0077C67.0521 128.104 68.8723 129.775 69.0552 131.816L70.1473 144.083C70.3289 146.124 72.0914 148.231 74.0654 148.766L94.3002 154.244C96.2729 154.779 97.895 155.216 97.9041 155.216C97.9132 155.216 99.5345 154.778 101.508 154.243L121.779 148.752C123.752 148.217 125.516 146.11 125.699 144.069L127.897 119.492C128.08 117.451 126.557 115.78 124.513 115.78H101.717C99.6726 115.78 97.9832 115.78 97.961 115.78C97.9389 115.78 96.2477 115.78 94.2033 115.78H46.637C44.5926 115.78 42.7724 114.11 42.5908 112.069L37.1971 51.4728C37.0155 49.4314 36.734 46.2715 36.5711 44.45C36.4099 42.6294 37.9491 41.1394 39.9934 41.1394H94.2033C96.2477 41.1394 97.9384 41.1394 97.961 41.1394C97.9836 41.1394 99.6731 41.1394 101.717 41.1394H155.861C157.905 41.1385 159.445 42.6281 159.283 44.4496Z" fill="#DD512A"/>
</svg>
