<svg width="223" height="222" viewBox="0 0 223 222" fill="none" xmlns="http://www.w3.org/2000/svg">
<g clip-path="url(#clip0_13_55)">
<path d="M224 0H1V222H224V0Z" fill="#F7DF1E"/>
<path d="M149.799 173.438C154.291 180.74 160.135 186.106 170.471 186.106C179.154 186.106 184.701 181.786 184.701 175.817C184.701 168.664 179.002 166.13 169.445 161.968L164.206 159.731C149.084 153.317 139.039 145.283 139.039 128.298C139.039 112.653 151.013 100.742 169.728 100.742C183.051 100.742 192.63 105.358 199.532 117.445L183.214 127.876C179.621 121.462 175.745 118.936 169.728 118.936C163.59 118.936 159.7 122.812 159.7 127.876C159.7 134.134 163.594 136.667 172.584 140.544L177.823 142.778C195.628 150.379 205.68 158.127 205.68 175.549C205.68 194.331 190.86 204.621 170.956 204.621C151.495 204.621 138.922 195.388 132.77 183.287L149.799 173.438ZM75.774 175.246C79.0659 181.06 82.0605 185.976 89.2602 185.976C96.1448 185.976 100.488 183.294 100.488 172.868V101.933H121.443V173.149C121.443 194.75 108.721 204.582 90.1522 204.582C73.3741 204.582 63.6576 195.938 58.7162 185.527L75.774 175.246Z" fill="black"/>
</g>
<defs>
<clipPath id="clip0_13_55">
<rect width="223" height="222" fill="white"/>
</clipPath>
</defs>
</svg>
