<svg width="234" height="184" viewBox="0 0 234 184" fill="none" xmlns="http://www.w3.org/2000/svg">
<g clip-path="url(#clip0_106_33)">
<path d="M40.5626 117.751C47.6488 117.751 52.9389 115.668 56.2861 111.561C59.5975 107.496 61.8845 100.453 63.0833 90.6296C64.201 81.4474 63.7751 75.0359 61.8182 71.576C59.8171 68.0421 55.4908 66.2498 48.9597 66.2498H37.6354L31.3574 117.751H40.5626ZM3.52372 181.191C2.99806 181.191 2.49883 180.817 2.16464 180.169C1.82986 179.522 1.69418 178.67 1.79461 177.847L18.4325 41.3672C18.5935 40.0478 19.3188 39.0946 20.1622 39.0946H56.0212C67.2909 39.0946 75.6792 43.9732 80.9517 53.5964C86.2523 63.2702 87.8892 76.7926 85.8165 93.7871C84.9731 100.711 83.5224 107.141 81.5049 112.898C79.4851 118.661 76.8157 123.994 73.5695 128.751C69.6837 134.549 65.2858 138.753 60.5096 141.227C55.8092 143.668 49.7726 144.906 42.5678 144.906H28.0478L23.9012 178.918C23.7403 180.238 23.0155 181.191 22.1721 181.191H3.52372Z" fill="#6181B6"/>
<path d="M128.573 144.906C128.047 144.906 127.548 144.532 127.214 143.884C126.879 143.237 126.743 142.386 126.843 141.562L134.203 81.1749C134.903 75.432 134.731 71.31 133.718 69.5683C133.097 68.5036 131.234 66.718 125.726 66.718H112.392L103.139 142.633C102.978 143.953 102.252 144.906 101.409 144.906H82.9081C82.3818 144.906 81.8832 144.532 81.5484 143.884C81.2136 143.237 81.078 142.385 81.1784 141.562L97.8163 5.08218C97.9773 3.76281 98.7026 2.80957 99.546 2.80957H118.047C118.573 2.80957 119.072 3.18413 119.407 3.83117C119.741 4.47915 119.877 5.33033 119.777 6.15435L115.762 39.0946H130.105C141.033 39.0946 148.443 42.1659 152.758 48.4846C157.157 54.9307 158.53 65.2376 156.838 79.1223L149.097 142.633C148.937 143.953 148.212 144.906 147.368 144.906H128.573Z" fill="#6181B6"/>
<path d="M186.113 117.751C193.199 117.751 198.489 115.668 201.836 111.561C205.148 107.497 207.435 100.454 208.634 90.6296C209.752 81.4474 209.326 75.0359 207.368 71.576C205.367 68.0421 201.041 66.2498 194.51 66.2498H183.186L176.908 117.751H186.113ZM149.075 181.191C148.549 181.191 148.05 180.817 147.715 180.169C147.381 179.522 147.244 178.67 147.345 177.847L163.983 41.3672C164.144 40.0478 164.869 39.0946 165.713 39.0946H201.571C212.842 39.0946 221.229 43.9732 226.502 53.5964C231.803 63.2693 233.439 76.7917 231.367 93.7871C230.523 100.711 229.073 107.141 227.055 112.898C225.035 118.661 222.366 123.994 219.12 128.751C215.234 134.549 210.836 138.753 206.06 141.227C201.359 143.668 195.323 144.906 188.118 144.906H173.597L169.453 178.918C169.291 180.238 168.566 181.191 167.722 181.191H149.075Z" fill="#6181B6"/>
</g>
<defs>
<clipPath id="clip0_106_33">
<rect width="234" height="184" fill="white"/>
</clipPath>
</defs>
</svg>
