<svg width="229" height="222" viewBox="0 0 229 222" fill="none" xmlns="http://www.w3.org/2000/svg">
<g clip-path="url(#clip0_13_73)">
<path d="M40.5521 0H188.448C210.871 0 229 18.0256 229 40.3205V181.679C229 203.974 210.871 222 188.448 222H40.5521C18.1292 222 0 203.974 0 181.679V40.3205C0 18.0256 18.1292 0 40.5521 0Z" fill="#001E36"/>
<path d="M51.525 155.685V58.0616C51.525 57.3974 51.8112 57.018 52.4792 57.018C54.1012 57.018 55.6279 57.018 57.8225 56.9231C60.1125 56.8282 62.4979 56.8282 65.0742 56.7333C67.6504 56.6385 70.4175 56.6385 73.3754 56.5436C76.3333 56.4487 79.1958 56.4487 82.0583 56.4487C89.8825 56.4487 96.3708 57.3974 101.714 59.3898C106.485 61.0026 110.874 63.659 114.5 67.1692C117.553 70.2051 119.939 73.9051 121.465 77.9846C122.897 81.9692 123.66 86.0487 123.66 90.318C123.66 98.4769 121.752 105.213 117.935 110.526C114.118 115.838 108.775 119.823 102.573 122.1C96.0846 124.472 88.9283 125.326 81.1042 125.326C78.8142 125.326 77.2875 125.326 76.3333 125.231C75.3792 125.136 74.0433 125.136 72.2304 125.136V155.59C72.3258 156.254 71.8487 156.823 71.1808 156.918C71.0854 156.918 70.99 156.918 70.7992 156.918H52.67C51.9067 156.918 51.525 156.538 51.525 155.685ZM72.3258 75.3282V107.205C73.6617 107.3 74.9021 107.395 76.0471 107.395H81.1042C84.8254 107.395 88.5467 106.826 92.0771 105.687C95.1304 104.833 97.8021 103.031 99.9012 100.659C101.905 98.2872 102.859 95.0616 102.859 90.8872C102.955 87.9462 102.191 85.0051 100.665 82.4436C99.0425 79.9769 96.7525 78.0795 93.9854 77.0359C90.455 75.6128 86.6383 75.0436 82.7262 75.1385C80.2454 75.1385 78.0508 75.1385 76.2379 75.2333C74.3296 75.1385 72.9937 75.2333 72.3258 75.3282Z" fill="#31A8FF"/>
<path d="M183.2 101.418C180.337 99.9 177.284 98.8564 174.04 98.1923C170.51 97.4333 166.979 96.959 163.353 96.959C161.445 96.8641 159.441 97.1487 157.628 97.6231C156.388 97.9077 155.338 98.5718 154.67 99.5205C154.193 100.279 153.907 101.228 153.907 102.082C153.907 102.936 154.289 103.79 154.861 104.549C155.72 105.592 156.865 106.446 158.105 107.11C160.3 108.249 162.59 109.292 164.88 110.241C170.032 111.949 174.994 114.321 179.574 117.167C182.723 119.159 185.299 121.815 187.112 125.041C188.639 128.077 189.402 131.397 189.307 134.813C189.402 139.272 188.066 143.731 185.585 147.431C182.914 151.226 179.192 154.167 174.899 155.874C170.223 157.867 164.498 158.91 157.628 158.91C153.239 158.91 148.945 158.531 144.652 157.677C141.312 157.108 137.972 156.064 134.919 154.641C134.251 154.262 133.774 153.597 133.87 152.838V136.331C133.87 136.046 133.965 135.667 134.251 135.477C134.537 135.287 134.824 135.382 135.11 135.572C138.831 137.754 142.743 139.272 146.942 140.221C150.567 141.169 154.384 141.644 158.201 141.644C161.827 141.644 164.403 141.169 166.12 140.315C167.647 139.651 168.697 138.038 168.697 136.331C168.697 135.003 167.933 133.769 166.407 132.536C164.88 131.303 161.731 129.879 157.056 128.077C152.19 126.369 147.705 124.092 143.507 121.246C140.549 119.159 138.068 116.408 136.255 113.182C134.728 110.146 133.965 106.826 134.06 103.505C134.06 99.4256 135.205 95.5359 137.305 92.0256C139.69 88.2308 143.22 85.1949 147.323 83.2974C151.808 81.0205 157.437 79.9769 164.212 79.9769C168.124 79.9769 172.132 80.2615 176.044 80.8308C178.906 81.2103 181.673 81.9692 184.25 83.0128C184.631 83.1077 185.013 83.4872 185.204 83.8667C185.299 84.2462 185.395 84.6256 185.395 85.0051V100.469C185.395 100.849 185.204 101.228 184.917 101.418C184.059 101.608 183.582 101.608 183.2 101.418Z" fill="#31A8FF"/>
</g>
<defs>
<clipPath id="clip0_13_73">
<rect width="229" height="222" fill="white"/>
</clipPath>
</defs>
</svg>
