<svg width="221" height="189" viewBox="0 0 221 189" fill="none" xmlns="http://www.w3.org/2000/svg">
<path d="M221 94.5216C221 80.4623 202.666 67.1385 174.557 58.8759C181.043 31.363 178.16 9.47379 165.457 2.46578C162.529 0.821926 159.106 0.0432587 155.367 0.0432587V9.69009C157.439 9.69009 159.106 10.0794 160.502 10.8148C166.628 14.1891 169.286 27.0371 167.214 43.5621C166.719 47.6285 165.908 51.9112 164.917 56.2804C156.087 54.2039 146.447 52.6033 136.312 51.5651C130.231 43.5621 123.924 36.2946 117.572 29.9355C132.258 16.8279 146.042 9.64683 155.412 9.64683V0C143.024 0 126.807 8.47883 110.41 23.187C94.0128 8.56535 77.796 0.173038 65.4081 0.173038V9.81987C74.7328 9.81987 88.5622 16.9577 103.247 29.9787C96.9409 36.3378 90.6343 43.5621 84.6431 51.5651C74.4625 52.6033 64.8225 54.2039 55.9933 56.3236C54.9572 51.9977 54.1914 47.8016 53.6508 43.7784C51.5336 27.2534 54.1464 14.4054 60.2277 10.9879C61.5791 10.2092 63.3359 9.86313 65.4081 9.86313V0.216297C61.6241 0.216297 58.2006 0.994964 55.2275 2.63882C42.5693 9.64683 39.7314 31.4928 46.2631 58.9192C18.244 67.225 0 80.5056 0 94.5216C0 108.581 18.3341 121.905 46.4433 130.167C39.9566 157.68 42.8396 179.569 55.5428 186.577C58.4709 188.221 61.8944 189 65.6784 189C78.0663 189 94.2831 180.521 110.68 165.813C127.077 180.435 143.294 188.827 155.682 188.827C159.466 188.827 162.89 188.048 165.863 186.404C178.521 179.396 181.359 157.55 174.827 130.124C202.756 121.862 221 108.538 221 94.5216V94.5216ZM162.349 65.6677C160.682 71.2481 158.61 77.0016 156.268 82.7551C154.421 79.2943 152.484 75.8336 150.366 72.3729C148.294 68.9121 146.087 65.5379 143.88 62.2502C150.276 63.1586 156.448 64.2834 162.349 65.6677ZM141.717 111.739C138.204 117.579 134.6 123.116 130.861 128.264C124.149 128.826 117.347 129.129 110.5 129.129C103.698 129.129 96.8958 128.826 90.2289 128.307C86.49 123.159 82.8412 117.665 79.3276 111.869C75.904 106.202 72.7958 100.448 69.9578 94.6514C72.7507 88.8546 75.904 83.0579 79.2825 77.3909C82.7962 71.5509 86.3999 66.0137 90.1388 60.8659C96.8508 60.3035 103.653 60.0007 110.5 60.0007C117.302 60.0007 124.104 60.3035 130.771 60.8226C134.51 65.9705 138.159 71.4644 141.672 77.2612C145.096 82.9281 148.204 88.6816 151.042 94.4784C148.204 100.275 145.096 106.072 141.717 111.739ZM156.268 106.115C158.7 111.912 160.772 117.709 162.484 123.332C156.583 124.717 150.366 125.885 143.925 126.793C146.132 123.462 148.339 120.045 150.412 116.541C152.484 113.08 154.421 109.576 156.268 106.115ZM110.59 152.273C106.401 148.12 102.211 143.491 98.0671 138.43C102.121 138.603 106.266 138.733 110.455 138.733C114.689 138.733 118.879 138.646 122.978 138.43C118.924 143.491 114.734 148.12 110.59 152.273ZM77.0752 126.793C70.6786 125.885 64.5071 124.76 58.606 123.376C60.2727 117.795 62.3449 112.042 64.6873 106.288C66.5342 109.749 68.4713 113.21 70.5885 116.67C72.7057 120.131 74.8679 123.505 77.0752 126.793ZM110.365 36.7704C114.554 40.9233 118.744 45.5521 122.888 50.6134C118.834 50.4404 114.689 50.3106 110.5 50.3106C106.266 50.3106 102.076 50.3971 97.977 50.6134C102.031 45.5521 106.221 40.9233 110.365 36.7704ZM77.0302 62.2502C74.8229 65.5811 72.6156 68.9986 70.5434 72.5026C68.4713 75.9634 66.5342 79.4241 64.6873 82.8849C62.2548 77.0881 60.1826 71.2914 58.4709 65.6677C64.372 64.3266 70.5885 63.1586 77.0302 62.2502ZM36.2627 116.411C20.3162 109.879 10.0004 101.313 10.0004 94.5216C10.0004 87.7299 20.3162 79.1213 36.2627 72.6324C40.1368 71.0318 44.3712 69.6043 48.7407 68.2632C51.3084 76.742 54.6869 85.567 58.8763 94.6082C54.732 103.606 51.3985 112.388 48.8759 120.823C44.4162 119.482 40.1818 118.011 36.2627 116.411ZM60.498 178.228C54.3716 174.854 51.7138 162.006 53.786 145.481C54.2815 141.415 55.0923 137.132 56.0834 132.763C64.9126 134.839 74.5526 136.44 84.6881 137.478C90.7695 145.481 97.076 152.749 103.428 159.108C88.7424 172.215 74.958 179.396 65.5883 179.396C63.5611 179.353 61.8494 178.964 60.498 178.228V178.228ZM167.349 145.265C169.466 161.79 166.854 174.638 160.772 178.055C159.421 178.834 157.664 179.18 155.592 179.18C146.267 179.18 132.438 172.042 117.753 159.021C124.059 152.662 130.366 145.438 136.357 137.435C146.538 136.397 156.178 134.796 165.007 132.676C166.043 137.046 166.854 141.242 167.349 145.265V145.265ZM184.692 116.411C180.818 118.011 176.584 119.439 172.214 120.78C169.647 112.301 166.268 103.476 162.079 94.4351C166.223 85.4372 169.556 76.6555 172.079 68.22C176.539 69.561 180.773 71.0318 184.737 72.6324C200.684 79.1646 211 87.7299 211 94.5216C210.955 101.313 200.639 109.922 184.692 116.411V116.411Z" fill="#61DAFB"/>
<path d="M110.455 114.291C121.824 114.291 131.041 105.44 131.041 94.5216C131.041 83.6032 121.824 74.7521 110.455 74.7521C99.085 74.7521 89.8682 83.6032 89.8682 94.5216C89.8682 105.44 99.085 114.291 110.455 114.291Z" fill="#61DAFB"/>
</svg>
