<svg width="213" height="160" viewBox="0 0 213 160" fill="none" xmlns="http://www.w3.org/2000/svg">
<g clip-path="url(#clip0_14_83)">
<path d="M183.294 91.9631C175.867 92.0021 169.412 93.7946 164.008 96.4444C162.025 92.5087 160.042 89.0016 159.692 86.4298C159.303 83.4293 158.836 81.5978 159.303 78.0128C159.77 74.4278 161.869 69.3231 161.83 68.9334C161.791 68.5437 161.364 66.7123 157.087 66.6733C152.81 66.6343 149.116 67.4916 148.688 68.6217C148.26 69.7517 147.444 72.3236 146.899 74.9734C146.161 78.8701 138.345 92.7814 133.874 100.068C132.435 97.2237 131.191 94.7298 130.919 92.7425C130.53 89.742 130.063 87.9105 130.53 84.3255C130.996 80.7405 133.096 75.6358 133.057 75.2461C133.018 74.8565 132.59 73.025 128.313 72.986C124.036 72.9471 120.342 73.8043 119.915 74.9344C119.487 76.0644 119.02 78.7142 118.126 81.2861C117.232 83.8579 106.85 107.082 104.128 113.083C102.728 116.162 101.523 118.617 100.668 120.292C100.668 120.292 100.629 120.409 100.512 120.604C99.7734 122.046 99.3457 122.825 99.3457 122.825C99.3457 122.825 99.3457 122.825 99.3457 122.864C98.7624 123.916 98.1403 124.891 97.8293 124.891C97.596 124.891 97.1683 122.085 97.907 118.266C99.4623 110.2 103.156 97.6524 103.117 97.2237C103.117 96.9899 103.817 94.8077 100.707 93.6777C97.6737 92.5476 96.585 94.4181 96.3128 94.4181C96.0406 94.4181 95.8462 95.0805 95.8462 95.0805C95.8462 95.0805 99.229 80.9743 89.3917 80.9743C83.2482 80.9743 74.7718 87.7157 70.5724 93.7946C67.9284 95.2364 62.2904 98.3148 56.2635 101.627C53.9695 102.913 51.5976 104.199 49.3813 105.407C49.2258 105.251 49.0702 105.056 48.9147 104.9C37.0166 92.158 15.0089 83.1565 15.9421 66.0498C16.292 59.8151 18.4306 43.4488 58.2077 23.5754C90.947 7.40394 116.998 11.8852 121.509 21.8219C127.963 36.006 107.55 62.3479 73.7219 66.1667C60.8128 67.6085 54.0472 62.6207 52.3364 60.7503C50.5478 58.8019 50.2756 58.685 49.6146 59.0747C48.5259 59.6592 49.2258 61.4127 49.6146 62.4259C50.6255 65.0756 54.786 69.7517 61.8238 72.0508C68.045 74.0771 83.1704 75.2072 101.484 68.1151C121.975 60.1658 137.995 38.0713 133.29 19.5618C128.586 0.779493 97.4793 -5.41632 68.045 5.0659C50.5478 11.3007 31.573 21.1205 17.9251 33.9018C1.71097 49.099 -0.855298 62.309 0.194538 67.8423C3.96617 87.4819 30.9897 100.263 41.7991 109.732C41.2548 110.044 40.7493 110.317 40.3216 110.551C34.9169 113.239 14.309 124.033 9.17647 135.451C3.34405 148.388 10.1097 157.662 14.5812 158.909C28.4623 162.767 42.7323 155.831 50.3922 144.374C58.0522 132.918 57.119 118.032 53.5806 111.213C53.5417 111.135 53.5029 111.057 53.4251 110.979C54.8249 110.161 56.2635 109.304 57.6633 108.485C60.424 106.849 63.1458 105.329 65.4788 104.082C64.1567 107.706 63.1847 112.031 62.7181 118.266C62.1348 125.592 65.1288 135.1 69.056 138.841C70.8057 140.477 72.8665 140.516 74.1885 140.516C78.7767 140.516 80.8375 136.698 83.1316 132.177C85.9311 126.644 88.4585 120.214 88.4585 120.214C88.4585 120.214 85.309 137.594 93.8632 137.594C96.9738 137.594 100.123 133.541 101.523 131.476C101.523 131.515 101.523 131.515 101.523 131.515C101.523 131.515 101.601 131.398 101.756 131.125C102.067 130.619 102.262 130.307 102.262 130.307C102.262 130.307 102.262 130.268 102.262 130.229C103.506 128.047 106.306 123.098 110.466 114.876C115.832 104.277 121.003 91.0279 121.003 91.0279C121.003 91.0279 121.47 94.2622 123.064 99.6397C123.997 102.796 125.942 106.264 127.497 109.615C126.253 111.369 125.475 112.343 125.475 112.343C125.475 112.343 125.475 112.343 125.514 112.382C124.503 113.707 123.414 115.149 122.209 116.552C117.971 121.617 112.916 127.423 112.216 129.099C111.399 131.086 111.594 132.528 113.149 133.697C114.277 134.554 116.299 134.671 118.359 134.554C122.17 134.282 124.853 133.346 126.175 132.762C128.236 132.022 130.646 130.892 132.902 129.216C137.062 126.138 139.589 121.734 139.356 115.928C139.239 112.733 138.19 109.537 136.906 106.537C137.295 105.991 137.645 105.446 138.034 104.9C144.605 95.2754 149.699 84.7152 149.699 84.7152C149.699 84.7152 150.166 87.9495 151.76 93.327C152.537 96.0547 154.132 99.0162 155.531 101.9C149.349 106.927 145.538 112.772 144.178 116.59C141.728 123.683 143.633 126.878 147.249 127.618C148.882 127.969 151.215 127.19 152.926 126.449C155.104 125.748 157.67 124.54 160.12 122.747C164.28 119.669 168.285 115.383 168.052 109.576C167.935 106.927 167.235 104.316 166.263 101.783C171.512 99.6007 178.278 98.3927 186.91 99.4059C205.418 101.588 209.073 113.161 208.373 118.032C207.673 122.903 203.785 125.553 202.502 126.371C201.219 127.19 200.791 127.462 200.908 128.047C201.063 128.904 201.685 128.865 202.774 128.709C204.29 128.437 212.495 124.774 212.845 115.811C213.428 104.355 202.541 91.8462 183.294 91.9631ZM40.516 140.205C34.3725 146.907 25.8183 149.44 22.1244 147.297C18.1584 144.998 19.7137 135.1 27.257 128.008C31.8451 123.683 37.7553 119.669 41.6825 117.214C42.5768 116.668 43.8988 115.889 45.493 114.915C45.7652 114.759 45.9207 114.681 45.9207 114.681C46.2318 114.486 46.5428 114.291 46.8539 114.097C49.6146 124.228 46.9706 133.152 40.516 140.205ZM85.2312 109.732C83.0927 114.954 78.6211 128.32 75.8994 127.579C73.5664 126.956 72.1277 116.824 75.4328 106.81C77.1047 101.783 80.6431 95.7819 82.7038 93.4439C86.0478 89.703 89.7416 88.4561 90.6359 89.9758C91.7635 91.9631 86.5532 106.459 85.2312 109.732ZM122.131 127.423C121.237 127.891 120.381 128.203 119.992 127.969C119.72 127.813 120.381 127.19 120.381 127.19C120.381 127.19 125.008 122.202 126.836 119.942C127.886 118.617 129.13 117.058 130.452 115.305C130.452 115.46 130.452 115.655 130.452 115.811C130.452 121.773 124.697 125.787 122.131 127.423ZM150.593 120.916C149.932 120.448 150.049 118.89 152.265 114.019C153.121 112.109 155.143 108.914 158.603 105.836C158.992 107.082 159.264 108.29 159.225 109.421C159.186 116.941 153.82 119.747 150.593 120.916Z" fill="#CD6799"/>
</g>
<defs>
<clipPath id="clip0_14_83">
<rect width="213" height="160" fill="white"/>
</clipPath>
</defs>
</svg>
