<svg width="223" height="223" viewBox="0 0 223 223" fill="none" xmlns="http://www.w3.org/2000/svg">
<g clip-path="url(#clip0_13_58)">
<path d="M15.8495 111.497C15.8495 149.358 37.8528 182.078 69.7594 197.583L24.131 72.5697C18.8236 84.4657 15.8495 97.6302 15.8495 111.497V111.497Z" fill="white"/>
<path d="M176.078 106.67C176.078 94.8491 171.831 86.6624 168.189 80.2904C163.34 72.4113 158.796 65.739 158.796 57.8599C158.796 49.0672 165.464 40.8823 174.858 40.8823C175.282 40.8823 175.684 40.9351 176.098 40.9588C159.08 25.3681 136.406 15.8491 111.504 15.8491C78.0864 15.8491 48.6861 32.9941 31.5826 58.9629C33.8268 59.0302 35.9417 59.0775 37.7382 59.0775C47.7433 59.0775 63.2307 57.8635 63.2307 57.8635C68.387 57.5596 68.9949 65.1329 63.844 65.7426C63.844 65.7426 58.6622 66.3523 52.8961 66.6545L87.7294 170.262L108.662 107.482L93.7594 66.6508C88.6085 66.3487 83.7287 65.739 83.7287 65.739C78.5742 65.4368 79.1785 57.5559 84.333 57.8599C84.333 57.8599 100.13 59.0739 109.529 59.0739C119.532 59.0739 135.021 57.8599 135.021 57.8599C140.181 57.5559 140.787 65.1292 135.635 65.739C135.635 65.739 130.442 66.3487 124.687 66.6508L159.254 169.474L168.795 137.592C172.931 124.361 176.078 114.859 176.078 106.67V106.67Z" fill="white"/>
<path d="M113.182 119.864L84.4823 203.258C93.0514 205.777 102.114 207.155 111.504 207.155C122.643 207.155 133.325 205.229 143.268 201.733C143.012 201.323 142.779 200.888 142.587 200.415L113.182 119.864Z" fill="white"/>
<path d="M195.436 65.6061C195.848 68.6529 196.081 71.9236 196.081 75.4418C196.081 85.1482 194.268 96.0595 188.807 109.703L159.589 194.177C188.027 177.595 207.154 146.787 207.154 111.499C207.156 94.8692 202.908 79.2312 195.436 65.6061V65.6061Z" fill="white"/>
<path d="M111.504 0C50.0221 0 0 50.0172 0 111.497C0 172.985 50.0221 223 111.504 223C172.983 223 223.013 172.985 223.013 111.497C223.011 50.0172 172.983 0 111.504 0ZM111.504 217.889C52.8415 217.889 5.11269 170.162 5.11269 111.497C5.11269 52.8365 52.8396 5.11257 111.504 5.11257C170.164 5.11257 217.889 52.8365 217.889 111.497C217.889 170.162 170.164 217.889 111.504 217.889Z" fill="white"/>
</g>
<defs>
<clipPath id="clip0_13_58">
<rect width="223" height="223" fill="white"/>
</clipPath>
</defs>
</svg>
